<svg width="371" height="72" viewBox="0 0 371 72" fill="none" xmlns="http://www.w3.org/2000/svg">
<path d="M7.90625 60.4688C7.90625 61.5312 7.5 62.4062 6.6875 63.0938C5.9375 63.7812 5.125 64.125 4.25 64.125C3.375 64.125 2.5 63.8125 1.625 63.1875C0.8125 62.625 0.34375 61.6875 0.21875 60.375C0.21875 56.1875 0.25 52.0312 0.3125 47.9062C0.4375 43.7812 0.5 39.625 0.5 35.4375C0.5 34.25 0.40625 32.375 0.21875 29.8125C0.09375 27.1875 0.03125 24.4688 0.03125 21.6562C0.03125 18.6562 0.125 15.7188 0.3125 12.8438C0.5625 9.96875 1.125 7.46875 2 5.34375L2.5625 4.40625L3.59375 3.5625C5.28125 2.9375 7.03125 2.625 8.84375 2.625C11.4062 2.625 14.1562 2.90625 17.0938 3.46875C20.0312 3.96875 22.75 4.875 25.25 6.1875C27.75 7.5 29.8125 9.28125 31.4375 11.5312C33.125 13.7188 33.9688 16.5312 33.9688 19.9688C33.9688 21.5938 33.7188 23.0938 33.2188 24.4688C32.7812 25.8438 32.1875 27.0938 31.4375 28.2188C30.75 29.3438 29.9375 30.3438 29 31.2188C28.125 32.0938 27.25 32.8125 26.375 33.375C24.5625 34.5625 22.5625 35.5 20.375 36.1875C18.1875 36.8125 15.9062 37.5312 13.5312 38.3438L12.4062 38.7188C12.2812 38.6562 12.2188 38.625 12.2188 38.625C13.7188 39.6875 15.125 40.8125 16.4375 42C17.8125 43.125 19.1875 44.25 20.5625 45.375C22 46.5 23.4688 47.5938 24.9688 48.6562C26.5312 49.6562 28.2188 50.5938 30.0312 51.4688C31.2188 52.5938 31.8125 53.7812 31.8125 55.0312C31.8125 56.0938 31.4375 56.9688 30.6875 57.6562C30 58.2812 29.1562 58.5938 28.1562 58.5938C27.4062 58.5938 26.5312 58.375 25.5312 57.9375C24.5312 57.5 23.5 56.9688 22.4375 56.3438C21.375 55.6562 20.2812 54.9375 19.1562 54.1875C18.0938 53.4375 17.0938 52.75 16.1562 52.125C14.5312 51.0625 13.0312 49.9688 11.6562 48.8438C10.3438 47.7188 9.15625 46.625 8.09375 45.5625V47.5312C8.09375 49.5938 8.03125 51.7188 7.90625 53.9062C7.84375 56.0312 7.84375 58.2188 7.90625 60.4688ZM8.1875 31.6875C8.0625 31.8125 8 31.875 8 31.875C7.9375 31.875 8.09375 31.8125 8.46875 31.6875C9.84375 31.3125 11.5312 30.9375 13.5312 30.5625C15.5938 30.125 17.5625 29.5312 19.4375 28.7812C21.3125 27.9688 22.9062 26.9062 24.2188 25.5938C25.5938 24.2188 26.2812 22.375 26.2812 20.0625C26.2812 18.1875 25.9062 16.7188 25.1562 15.6562C24.4688 14.5938 23.5312 13.7812 22.3438 13.2188C21.2188 12.5938 19.9375 12.1562 18.5 11.9062C17.0625 11.5938 15.625 11.2812 14.1875 10.9688C13.375 10.7812 12.4688 10.625 11.4688 10.5C10.4688 10.3125 9.625 10.2188 8.9375 10.2188C8.6875 10.2188 8.5 10.625 8.375 11.4375C8.25 12.1875 8.15625 13.0938 8.09375 14.1562C8.09375 15.2188 8.09375 16.2812 8.09375 17.3438C8.09375 18.3438 8.09375 19.0938 8.09375 19.5938C8.09375 21.9062 8.09375 24.0938 8.09375 26.1562C8.15625 28.2188 8.1875 30.0625 8.1875 31.6875ZM66.5 46.875L65.8438 46.7812C64.9062 46.5938 64.0312 46.2812 63.2188 45.8438C62.4688 45.4062 61.7188 44.9688 60.9688 44.5312C60.2188 44.0938 59.5 43.7188 58.8125 43.4062C58.125 43.0312 57.4375 42.8438 56.75 42.8438C54.5625 43.0938 52.6562 43.8438 51.0312 45.0938C49.4688 46.3438 48.6875 47.8438 48.6875 49.5938C48.6875 50.0938 48.8125 50.625 49.0625 51.1875C49.3125 51.75 49.7188 52.4688 50.2812 53.3438C51.9062 54.3438 53.6875 54.8438 55.625 54.8438C57.875 54.8438 59.8438 54.625 61.5312 54.1875L62.75 52.9688C63.375 52.1562 64.2188 51.75 65.2812 51.75H65.75C65.8125 51.25 65.875 50.75 65.9375 50.25C66 49.75 66.0938 49.25 66.2188 48.75L66.5 46.875ZM67.9062 58.2188L65.75 60.2812C64.9375 61.0312 63.625 61.5625 61.8125 61.875C60.0625 62.25 58.2188 62.4375 56.2812 62.4375C53.6562 62.4375 51.4062 62.1562 49.5312 61.5938C47.7188 61.0312 46.125 59.9375 44.75 58.3125C42.5 55.3125 41.375 52.5 41.375 49.875C41.375 48.125 41.7188 46.4062 42.4062 44.7188C43.1562 42.9688 44.1875 41.4062 45.5 40.0312C46.8125 38.6562 48.4062 37.5312 50.2812 36.6562C52.2188 35.7812 54.375 35.3438 56.75 35.3438C57.75 35.4688 58.7188 35.6875 59.6562 36C60.5938 36.3125 61.4688 36.6562 62.2812 37.0312C63.0938 37.4062 63.8125 37.7812 64.4375 38.1562C65.125 38.4688 65.6562 38.7188 66.0312 38.9062L65.4688 36.375C65.1562 35.375 64.7812 34.4062 64.3438 33.4688C63.9062 32.4688 63.375 31.5 62.75 30.5625L60.875 28.875C60.375 28.75 59.9062 28.5938 59.4688 28.4062C59.0312 28.1562 58.4688 28.0312 57.7812 28.0312C55.9688 28.1562 54.1875 28.4062 52.4375 28.7812C50.6875 29.0938 48.9375 29.5625 47.1875 30.1875C47 30.25 46.7188 30.2812 46.3438 30.2812C45.0312 30.2812 44 29.9062 43.25 29.1562C42.5625 28.4062 42.2188 27.5938 42.2188 26.7188C42.2188 25.9688 42.4062 25.3125 42.7812 24.75C43.1562 24.125 43.875 23.5 44.9375 22.875C46.5625 22.375 48.3438 21.8438 50.2812 21.2812C52.2812 20.6562 54.2812 20.3438 56.2812 20.3438C59.7188 20.3438 62.5625 21.0312 64.8125 22.4062C67.125 23.7812 68.9375 25.5938 70.25 27.8438C71.625 30.0312 72.5625 32.4688 73.0625 35.1562C73.625 37.8438 73.9062 40.5 73.9062 43.125C73.9062 44.6875 73.8438 46.375 73.7188 48.1875C73.6562 49.9375 73.4375 51.5938 73.0625 53.1562C72.75 54.6562 72.2812 55.9062 71.6562 56.9062C71.0312 57.9062 70.1875 58.4062 69.125 58.4062C68.875 58.4062 68.625 58.4062 68.375 58.4062C68.125 58.3438 67.9688 58.2812 67.9062 58.2188ZM84.3125 55.2188C84.3125 54.2812 84.5625 53.2812 85.0625 52.2188C85.625 51.1562 86.25 50.1562 86.9375 49.2188C87.6875 48.2812 88.375 47.4688 89 46.7812C89.625 46.0312 90.0312 45.5312 90.2188 45.2812L94.8125 39.1875C95.875 37.8125 96.8125 36.5938 97.625 35.5312C98.4375 34.4688 99.1562 33.5312 99.7812 32.7188C100.469 31.8438 101.094 31.0312 101.656 30.2812C102.281 29.4688 102.906 28.625 103.531 27.75C103.594 27.6875 103.625 27.625 103.625 27.5625L103.531 27.6562C103.219 27.5938 102.875 27.5625 102.5 27.5625C102.188 27.5625 101.844 27.5625 101.469 27.5625C98.8438 27.5625 96.0625 27.7812 93.125 28.2188C90.1875 28.6562 87.5312 28.9375 85.1562 29.0625C83.9062 28.9375 82.9375 28.5312 82.25 27.8438C81.5625 27.1562 81.2188 26.2812 81.2188 25.2188C81.2188 24.4062 81.3438 23.75 81.5938 23.25C81.8438 22.75 82.3125 22.375 83 22.125C83.75 21.8125 84.7188 21.5938 85.9062 21.4688C87.1562 21.2812 88.7188 21.0938 90.5938 20.9062L99.2188 20.1562H101.281C102.969 20.1562 104.531 20.2188 105.969 20.3438C107.469 20.4062 108.75 20.625 109.812 21C110.875 21.3125 111.688 21.8438 112.25 22.5938C112.875 23.2812 113.188 24.2188 113.188 25.4062C112.812 26.6562 112.188 28.125 111.312 29.8125C110.5 31.4375 109.531 33.0938 108.406 34.7812C107.344 36.4688 106.25 38.0938 105.125 39.6562C104 41.2188 102.969 42.5 102.031 43.5L95.9375 50.3438C95.6875 50.6562 95.4688 50.9062 95.2812 51.0938C95.1562 51.2812 95.0625 51.4062 95 51.4688H95.6562C96.4062 51.5312 97.1562 51.5938 97.9062 51.6562C98.6562 51.6562 99.4062 51.6562 100.156 51.6562C100.844 51.6562 101.844 51.625 103.156 51.5625C104.469 51.5 105.812 51.4062 107.188 51.2812C108.625 51.1562 109.969 51 111.219 50.8125C112.469 50.5625 113.344 50.2812 113.844 49.9688C114.156 49.8438 114.469 49.75 114.781 49.6875C115.094 49.625 115.406 49.5938 115.719 49.5938C116.594 49.5938 117.406 49.9062 118.156 50.5312C118.906 51.0938 119.281 52 119.281 53.25C119.281 54.3125 118.812 55.2188 117.875 55.9688C117 56.6562 115.844 57.2188 114.406 57.6562C113.031 58.0938 111.5 58.4375 109.812 58.6875C108.125 58.875 106.5 59.0312 104.938 59.1562C103.375 59.2188 102 59.25 100.812 59.25C99.625 59.25 98.8438 59.25 98.4688 59.25C97.2188 59.25 96 59.25 94.8125 59.25C93.625 59.1875 92.4688 59.1562 91.3438 59.1562C90.9062 59.2188 90.5 59.2812 90.125 59.3438C89.75 59.3438 89.3438 59.3438 88.9062 59.3438C87.2812 59.3438 86.0938 58.8438 85.3438 57.8438C84.6562 56.8438 84.3125 55.9688 84.3125 55.2188ZM126.031 8.90625C125.094 8.59375 124.438 8.09375 124.062 7.40625C123.688 6.71875 123.5 6 123.5 5.25C123.5 4.375 123.875 3.5625 124.625 2.8125C125.375 2 126.312 1.59375 127.438 1.59375C129.438 1.59375 131.062 2.03125 132.312 2.90625C133.562 3.78125 134.531 4.90625 135.219 6.28125C135.906 7.59375 136.375 9.0625 136.625 10.6875C136.875 12.25 137 13.7188 137 15.0938V17.625C137 21.0625 137.125 24.375 137.375 27.5625C137.625 30.6875 137.875 33.6562 138.125 36.4688C140.125 34.4688 142.094 32.8438 144.031 31.5938C145.969 30.2812 148.25 29.625 150.875 29.625C152.812 29.625 154.438 30.0312 155.75 30.8438C157.125 31.6562 158.281 32.75 159.219 34.125C160.156 35.4375 160.906 37 161.469 38.8125C162.031 40.5625 162.469 42.4062 162.781 44.3438C163.094 46.2188 163.344 48.125 163.531 50.0625C163.719 52 163.906 53.7812 164.094 55.4062C164.094 56.6562 163.719 57.625 162.969 58.3125C162.219 59 161.375 59.3438 160.438 59.3438C159.125 59.3438 158.156 58.9062 157.531 58.0312C156.906 57.1562 156.469 56.0625 156.219 54.75C156.031 53.375 155.938 51.9062 155.938 50.3438C155.938 48.7188 155.844 47.1562 155.656 45.6562C155.219 43.7812 154.688 42.0938 154.062 40.5938C153.438 39.0938 152.5 37.9062 151.25 37.0312C148.875 37.2812 146.906 38.2188 145.344 39.8438C143.781 41.4688 142.531 43.4375 141.594 45.75C140.656 48 140 50.4375 139.625 53.0625C139.25 55.625 139.062 57.9688 139.062 60.0938C139.062 61.2188 138.656 62.125 137.844 62.8125C137.094 63.5 136.281 63.8438 135.406 63.8438C134.531 63.8438 133.656 63.5625 132.781 63C131.969 62.4375 131.5 61.4688 131.375 60.0938C131.375 54.2188 131.188 48.4375 130.812 42.75C130.5 37 130.125 31.2812 129.688 25.5938C129.5 22.7812 129.312 20 129.125 17.25C129 14.5 128.719 12 128.281 9.75C127.969 9.6875 127.219 9.40625 126.031 8.90625ZM177.5 25.3125C176.625 24.3125 176.188 23.3438 176.188 22.4062C176.188 21.3438 176.5 20.4375 177.125 19.6875C177.812 18.9375 178.688 18.5625 179.75 18.5625C180.562 18.5625 181.375 18.8125 182.188 19.3125C183 19.75 183.75 20.3125 184.438 21C185.125 21.625 185.719 22.25 186.219 22.875C186.719 23.5 187.031 23.9375 187.156 24.1875C187.281 24.125 187.562 24.0938 188 24.0938C189.188 24.0938 190.312 24.4062 191.375 25.0312C192.5 25.5938 193.5 26.3438 194.375 27.2812C195.312 28.2188 196.125 29.2188 196.812 30.2812C197.5 31.3438 198.094 32.3438 198.594 33.2812C199.094 34.2188 199.531 35.25 199.906 36.375C200.344 37.4375 200.688 38.5312 200.938 39.6562C201.188 40.7812 201.375 41.875 201.5 42.9375C201.625 44 201.688 44.9688 201.688 45.8438C201.688 48.4062 201.344 50.8125 200.656 53.0625C200.031 55.25 198.969 57.1875 197.469 58.875C196.031 60.5625 194.125 61.875 191.75 62.8125C189.375 63.8125 186.469 64.3125 183.031 64.3125C180.531 64.3125 178.469 63.5625 176.844 62.0625C175.281 60.5625 174.062 58.8125 173.188 56.8125C172.312 54.75 171.688 52.6562 171.312 50.5312C171 48.4062 170.844 46.6875 170.844 45.375C170.844 44.125 171 42.9062 171.312 41.7188C171.625 40.5312 172.031 39.4375 172.531 38.4375C173.031 37.375 173.531 36.4375 174.031 35.625C174.594 34.8125 175.125 34.125 175.625 33.5625L180.312 28.0312C180.25 27.7812 180.031 27.5 179.656 27.1875C179.344 26.8125 179.031 26.4688 178.719 26.1562L177.5 25.3125ZM186.969 31.3125L186.594 31.875C185.844 32.8125 185 33.7812 184.062 34.7812C183.188 35.7812 182.344 36.8125 181.531 37.875C180.719 38.9375 180.031 40.0938 179.469 41.3438C178.906 42.5938 178.625 43.9688 178.625 45.4688C178.625 46.8438 178.719 48.2188 178.906 49.5938C179.156 50.9062 179.469 52.0938 179.844 53.1562C180.281 54.2188 180.812 55.0938 181.438 55.7812C182.062 56.4062 182.781 56.7188 183.594 56.7188C184.281 56.7188 184.969 56.6562 185.656 56.5312C186.406 56.4062 187.062 56.2812 187.625 56.1562L191 54.4688C191.188 54.2188 191.5 53.9062 191.938 53.5312C192.375 53.0938 192.719 52.6562 192.969 52.2188C193.531 50.1562 193.812 48.125 193.812 46.125C193.812 43.5 193.375 41 192.5 38.625C191.625 36.1875 190.281 33.9688 188.469 31.9688L187.344 31.4062H187.25C187.125 31.4062 187.031 31.375 186.969 31.3125ZM227.75 7.78125C226.938 7.40625 226.312 6.875 225.875 6.1875C225.438 5.4375 225.219 4.71875 225.219 4.03125C225.219 3.15625 225.562 2.3125 226.25 1.5C226.938 0.6875 227.969 0.28125 229.344 0.28125C232.344 0.84375 234.625 1.6875 236.188 2.8125C237.75 3.875 238.875 5.21875 239.562 6.84375C240.25 8.40625 240.625 10.2188 240.688 12.2812C240.75 14.3438 240.781 16.5938 240.781 19.0312C240.781 21.3438 240.75 23.625 240.688 25.875C240.625 28.125 240.594 30.4375 240.594 32.8125V40.5C240.594 41.6875 240.562 42.9688 240.5 44.3438C240.438 45.6562 240.375 46.9688 240.312 48.2812C240.25 49.5938 240.188 50.8438 240.125 52.0312C240.062 53.2188 240.031 54.2188 240.031 55.0312C240.031 58.0312 239.031 60.2812 237.031 61.7812C235.094 63.3438 231.594 64.125 226.531 64.125C223.844 64.125 221.375 63.4688 219.125 62.1562C216.938 60.8438 215.031 59.1875 213.406 57.1875C211.844 55.125 210.594 52.9062 209.656 50.5312C208.781 48.0938 208.344 45.75 208.344 43.5C208.344 40.4375 208.969 37.875 210.219 35.8125C211.469 33.75 213.031 32.125 214.906 30.9375C216.781 29.75 218.75 28.9062 220.812 28.4062C222.938 27.9062 224.844 27.6562 226.531 27.6562C227.594 27.6562 228.656 27.6875 229.719 27.75C230.781 27.75 231.875 27.75 233 27.75C233.062 25.6875 233.125 23.5 233.188 21.1875C233.25 18.8125 233.281 16.5 233.281 14.25C233.281 13.25 233.188 12.3125 233 11.4375C232.875 10.5625 232.562 9.71875 232.062 8.90625C231.375 8.53125 230.719 8.3125 230.094 8.25C229.469 8.125 228.688 7.96875 227.75 7.78125ZM232.906 35.625C232.969 35.5 233 35.4375 233 35.4375C232.938 35.375 232.906 35.3438 232.906 35.3438C231.406 35.3438 229.812 35.3125 228.125 35.25C226.5 35.1875 224.906 35.3125 223.344 35.625C221.844 35.875 220.469 36.4062 219.219 37.2188C218.031 37.9688 217.125 39.1562 216.5 40.7812C216.375 41.1562 216.25 41.5938 216.125 42.0938C216.062 42.5938 215.969 43.0625 215.844 43.5C216.344 47.625 217.594 50.6562 219.594 52.5938C221.594 54.5312 224.656 55.75 228.781 56.25C229.406 56.0625 230 55.9062 230.562 55.7812C231.188 55.6562 231.688 55.5625 232.062 55.5C232.188 52.625 232.344 49.7188 232.531 46.7812C232.781 43.8438 232.906 40.8125 232.906 37.6875V35.625ZM259.25 34.5938C259.562 33.1562 260.125 32.2188 260.938 31.7812C261.75 31.2812 262.688 31.0312 263.75 31.0312C264.625 31.1562 265.375 31.625 266 32.4375C266.625 33.25 266.938 34.25 266.938 35.4375C266.812 37.875 266.688 40.0625 266.562 42C266.438 43.875 266.344 45.7188 266.281 47.5312C266.219 49.3438 266.156 51.25 266.094 53.25C266.094 55.1875 266.094 57.4375 266.094 60C266.094 61.0625 265.688 61.9375 264.875 62.625C264.062 63.375 263.219 63.75 262.344 63.75C261.469 63.75 260.625 63.4375 259.812 62.8125C259 62.1875 258.531 61.2188 258.406 59.9062C258.406 54.9688 258.5 50.75 258.688 47.25L259.25 34.5938ZM255.219 20.9062C254.469 20.5938 253.844 20.125 253.344 19.5C252.906 18.8125 252.688 18.125 252.688 17.4375C252.688 16.5 253 15.5938 253.625 14.7188C254.312 13.8438 255.375 13.4062 256.812 13.4062C258.625 13.7188 260.219 14.25 261.594 15C262.969 15.75 264.375 16.2188 265.812 16.4062C266.938 16.7188 267.75 17.2812 268.25 18.0938C268.75 18.8438 269 19.5938 269 20.3438C269 21.2188 268.656 22.0625 267.969 22.875C267.344 23.6875 266.5 24.0938 265.438 24.0938C264.5 24.0938 263.594 23.9688 262.719 23.7188C261.906 23.4688 261.094 23.1562 260.281 22.7812C259.469 22.4062 258.656 22.0625 257.844 21.75C257.031 21.375 256.156 21.0938 255.219 20.9062ZM290.938 56.25H291.406C292.156 56.25 292.812 56.4375 293.375 56.8125L293.75 57.1875C294.812 57.8125 295.688 58.8125 296.375 60.1875C297.125 61.5625 297.5 62.9688 297.5 64.4062C297.5 66.0938 296.938 67.625 295.812 69C294.688 70.4375 292.781 71.1562 290.094 71.1562C287.906 71.1562 286.281 70.5625 285.219 69.375C284.219 68.25 283.719 66.7188 283.719 64.7812C283.719 63.8438 283.875 62.9062 284.188 61.9688C284.5 61.0312 284.938 60.1875 285.5 59.4375C286.125 58.625 286.875 57.9375 287.75 57.375C288.688 56.8125 289.75 56.4375 290.938 56.25ZM331.25 20.9062C332.25 21.2188 333 21.75 333.5 22.5C334 23.25 334.25 24 334.25 24.75C334.25 25.8125 333.875 26.7188 333.125 27.4688C332.375 28.1562 331.469 28.5 330.406 28.5C330.094 28.5 329.844 28.4688 329.656 28.4062C328.344 28.0312 327.125 27.75 326 27.5625C324.875 27.3125 323.781 27.1875 322.719 27.1875C321.781 27.1875 320.844 27.2812 319.906 27.4688C318.969 27.6562 317.969 27.9062 316.906 28.2188L316.812 28.3125C317.75 30.125 319.031 31.7188 320.656 33.0938C322.281 34.4688 323.969 35.875 325.719 37.3125C327.469 38.6875 329.125 40.1562 330.688 41.7188C332.312 43.2812 333.5 45.0938 334.25 47.1562C334.562 47.9688 334.719 48.8125 334.719 49.6875C334.719 51 334.469 52.375 333.969 53.8125C333.469 55.25 332.719 56.5625 331.719 57.75C330.781 58.9375 329.562 59.9062 328.062 60.6562C326.562 61.4688 324.781 61.875 322.719 61.875C320.406 61.875 318.281 61.5 316.344 60.75C314.469 60.0625 312.812 59.125 311.375 57.9375L309.594 56.8125L308.75 55.9688C307.812 55.1562 307.312 54.1562 307.25 52.9688V52.4062C307.438 51.2188 307.844 50.375 308.469 49.875C309.156 49.3125 309.969 48.9688 310.906 48.8438C312.156 48.8438 313.312 49.5 314.375 50.8125L316.625 52.0312C317.5 52.5312 318.469 53.0312 319.531 53.5312C320.656 54.0312 321.75 54.2812 322.812 54.2812C323.688 54.2812 324.531 54.0312 325.344 53.5312L325.906 53.0625C326.094 52.5 326.25 51.9375 326.375 51.375C326.562 50.8125 326.656 50.2812 326.656 49.7812C326.656 48.8438 326.438 48.0625 326 47.4375C325.625 46.75 325.094 46.1562 324.406 45.6562C323.781 45.0938 323.094 44.5938 322.344 44.1562C321.594 43.6562 320.844 43.125 320.094 42.5625C319.406 42.0625 318.438 41.2812 317.188 40.2188C316 39.0938 314.781 37.8438 313.531 36.4688C312.281 35.0938 311.188 33.6562 310.25 32.1562C309.375 30.5938 308.938 29.1562 308.938 27.8438C308.938 26.2812 309.406 24.9688 310.344 23.9062C311.281 22.7812 312.438 21.9062 313.812 21.2812C315.188 20.5938 316.625 20.125 318.125 19.875C319.625 19.5625 320.906 19.4062 321.969 19.4062C323.719 19.4062 325.281 19.5312 326.656 19.7812C328.094 20.0312 329.625 20.4062 331.25 20.9062ZM349.344 35.25C349.219 35.3125 349.156 35.375 349.156 35.4375H349.344C349.781 35.4375 350.219 35.5625 350.656 35.8125C351.094 36 351.469 36.25 351.781 36.5625C352.094 36.8125 352.344 37.0625 352.531 37.3125C352.781 37.5 352.938 37.5938 353 37.5938C353.938 38.0312 354.969 38.25 356.094 38.25C357.906 38.25 359.438 38 360.688 37.5C361.938 36.9375 362.562 35.625 362.562 33.5625C362.188 32.3125 361.75 31.2812 361.25 30.4688C360.812 29.6562 360.062 28.875 359 28.125L357.031 27.2812H355.719C355.219 27.2812 354.562 27.4062 353.75 27.6562C352.938 27.9062 352.125 28.25 351.312 28.6875C351.062 29.0625 350.812 29.625 350.562 30.375C350.312 31.0625 350.094 31.75 349.906 32.4375C349.719 33.125 349.562 33.75 349.438 34.3125C349.375 34.875 349.344 35.1875 349.344 35.25ZM350.094 44.3438L349.812 43.3125C350.562 46.625 352.375 49.3438 355.25 51.4688C355.875 51.9688 356.656 52.4062 357.594 52.7812C358.594 53.1562 359.562 53.5 360.5 53.8125C361.5 54.125 362.375 54.375 363.125 54.5625C363.875 54.6875 364.344 54.75 364.531 54.75C365.156 54.1875 365.938 53.9062 366.875 53.9062C368 54.0312 368.875 54.5 369.5 55.3125C370.125 56.0625 370.438 56.875 370.438 57.75C370.438 59.125 369.781 60.2188 368.469 61.0312C367.219 61.9062 365.875 62.3438 364.438 62.3438C361.375 62.3438 358.469 61.7188 355.719 60.4688C352.969 59.2812 350.562 57.6562 348.5 55.5938C346.438 53.5312 344.75 51.1562 343.438 48.4688C342.188 45.7812 341.5 42.9375 341.375 39.9375C341.375 37.875 341.531 35.6562 341.844 33.2812C342.156 30.9062 342.812 28.7188 343.812 26.7188C344.812 24.6562 346.25 22.9375 348.125 21.5625C350.062 20.1875 352.625 19.5 355.812 19.5C357.812 19.5 359.688 19.9375 361.438 20.8125C363.188 21.625 364.688 22.75 365.938 24.1875C367.25 25.625 368.281 27.2812 369.031 29.1562C369.781 30.9688 370.156 32.875 370.156 34.875C370.156 36.6875 369.812 38.2812 369.125 39.6562C368.5 41.0312 367.625 42.1875 366.5 43.125C365.375 44 364.031 44.6875 362.469 45.1875C360.969 45.625 359.375 45.8438 357.688 45.8438C357 45.8438 356.219 45.7812 355.344 45.6562C354.531 45.5312 353.75 45.4062 353 45.2812C352.25 45.0938 351.594 44.9375 351.031 44.8125C350.531 44.625 350.219 44.4688 350.094 44.3438Z" fill="black"/>
</svg>
